<?xml version="1.0" encoding="UTF-8"?><svg id="Laag_1" xmlns="http://www.w3.org/2000/svg" viewBox="0 0 841.89 329.32"><defs><style>.cls-1{fill:#00ff84;}.cls-2{fill:#081923;}</style></defs><path class="cls-2" d="M68.17,141.87c-12.07,0-22.55-2.39-31.45-7.18-8.9-4.79-15.77-11.6-20.62-20.44-4.85-8.83-7.28-19.22-7.28-31.17V9.37H40.92V83.08c0,5.85,1.12,10.98,3.36,15.4,2.24,4.42,5.44,7.81,9.61,10.17,4.17,2.37,8.99,3.55,14.46,3.55s10.42-1.18,14.46-3.55c4.04-2.36,7.19-5.75,9.43-10.17,2.24-4.41,3.36-9.55,3.36-15.4V9.37h32.1V83.08c0,11.82-2.46,22.15-7.37,30.98-4.92,8.84-11.82,15.68-20.72,20.53-8.89,4.85-19.38,7.28-31.45,7.28Z"/><path class="cls-2" d="M155.33,140.01V41.28h30.23v6.72c7.47-5.72,16.3-8.58,26.5-8.58,7.71,0,14.53,1.68,20.43,5.04,5.91,3.36,10.55,8.02,13.91,14,3.36,5.97,5.04,12.87,5.04,20.72v60.84h-30.23v-56.74c0-5.47-1.62-9.83-4.86-13.06-3.24-3.23-7.59-4.85-13.06-4.85-3.86,0-7.25,.69-10.17,2.05-2.92,1.37-5.45,3.3-7.56,5.78v66.81h-30.23Z"/><path class="cls-2" d="M278.69,140.01V9.37l30.23-4.67V140.01h-30.23Z"/><path class="cls-2" d="M361.92,90.74c0-4.73,1.04-9,3.18-12.78,2.11-3.8,5.01-6.82,8.68-9.07,3.67-2.23,7.75-3.34,12.23-3.34,1.6,0,3.16,.14,4.66,.44l21.78-20.21c-7.86-4.25-16.7-6.38-26.45-6.38s-19.16,2.27-27.26,6.82c-8.1,4.55-14.5,10.69-19.21,18.47-4.73,7.79-7.1,16.47-7.1,26.05,0,8.68,1.95,16.61,5.85,23.75l23.69-21.95c-.02-.58-.05-1.21-.05-1.81Z"/><path class="cls-2" d="M497.51,210.93c-9.83,0-18.7-2.24-26.59-6.72-7.9-4.48-14.15-10.61-18.75-18.38-4.61-7.77-6.91-16.45-6.91-26.04s2.3-18.41,6.91-26.13c4.6-7.71,10.85-13.84,18.75-18.38,7.9-4.54,16.76-6.81,26.59-6.81,8.09,0,15.8,1.59,23.14,4.76,7.34,3.17,13.56,7.68,18.66,13.53l-18.48,19.22c-3.48-3.98-7.03-6.87-10.64-8.68-3.61-1.8-7.59-2.71-11.94-2.71s-8.27,1.09-11.76,3.27c-3.48,2.18-6.22,5.17-8.21,8.96-1.99,3.79-2.99,8.12-2.99,12.97s1.03,8.99,3.08,12.78c2.05,3.8,4.88,6.78,8.49,8.96,3.6,2.18,7.65,3.27,12.13,3.27,4.1,0,7.9-.87,11.38-2.61,3.48-1.74,6.84-4.41,10.08-8.02l17.92,18.66c-4.98,5.72-11.07,10.17-18.29,13.34-7.22,3.17-14.74,4.76-22.58,4.76Z"/><path class="cls-2" d="M559.65,209.06V78.42l30.23-4.67v76.89l39.38-40.31h33.78l-43.86,44.6,46.84,54.12h-38.26l-37.89-44.23v44.23h-30.23Z"/><path class="cls-1" d="M674.05,122.09l13.63-53h31.17l-22.21,53h-22.58Z"/><path class="cls-2" d="M776.7,210.36c-9.33,0-17.82-2.27-25.48-6.81-7.65-4.54-13.72-10.64-18.2-18.29-4.48-7.65-6.72-16.21-6.72-25.66s2.27-18.01,6.81-25.66c4.54-7.65,10.7-13.72,18.48-18.2,7.77-4.48,16.45-6.72,26.03-6.72,4.6,0,9.02,.56,13.25,1.68,4.23,1.12,8.21,2.74,11.94,4.85v-37.14l30.24-4.67V209.06h-29.86v-7.28c-7.84,5.73-16.68,8.58-26.5,8.58Zm5.23-25.75c4.23,0,8.08-.65,11.57-1.96,3.48-1.3,6.59-3.27,9.33-5.88v-34.53c-2.61-2.49-5.72-4.39-9.33-5.69-3.61-1.31-7.47-1.96-11.57-1.96-4.85,0-9.24,1.09-13.16,3.27-3.92,2.18-7.03,5.17-9.33,8.96-2.3,3.79-3.45,8.06-3.45,12.78s1.15,8.99,3.45,12.78c2.3,3.8,5.41,6.78,9.33,8.96,3.92,2.18,8.31,3.27,13.16,3.27Z"/><path class="cls-2" d="M418.35,130.09l-23.17,21.46c.19,1.21,.26,2.44,.26,3.71,0,4.59-1.07,8.79-3.18,12.6-2.11,3.78-4.99,6.8-8.58,9.05-3.62,2.25-7.73,3.36-12.32,3.36-2.2,0-4.29-.28-6.31-.81l-21.41,19.83c.16,.09,.3,.19,.46,.28,8.1,4.55,17.17,6.82,27.26,6.82s19.16-2.27,27.23-6.82c8.1-4.52,14.5-10.65,19.23-18.37,4.73-7.7,7.1-16.35,7.1-25.94s-2.18-17.61-6.57-25.17Z"/><g><path class="cls-1" d="M236.68,279.75h-13.02l-2.7,6.12h-3.6l11.1-24.5h3.46l11.13,24.5h-3.67l-2.69-6.12Zm-1.23-2.8l-5.29-12.01-5.28,12.01h10.57Z"/><path class="cls-1" d="M246.2,259.9h3.36v25.97h-3.36v-25.97Z"/><path class="cls-1" d="M255.97,259.9h3.36v25.97h-3.36v-25.97Z"/><path class="cls-1" d="M277.44,285.3c-1.71-.57-3.06-1.31-4.04-2.22l1.29-2.73c.93,.84,2.13,1.52,3.59,2.05,1.46,.52,2.96,.79,4.5,.79,2.03,0,3.55-.34,4.55-1.03,1-.69,1.5-1.6,1.5-2.75,0-.84-.27-1.52-.82-2.05s-1.23-.93-2.03-1.21c-.81-.28-1.94-.6-3.41-.94-1.84-.44-3.33-.89-4.46-1.33-1.13-.44-2.1-1.13-2.91-2.05-.8-.92-1.21-2.16-1.21-3.73,0-1.31,.34-2.49,1.03-3.54,.69-1.05,1.73-1.89,3.13-2.52,1.4-.63,3.14-.94,5.22-.94,1.45,0,2.87,.19,4.27,.56,1.4,.37,2.6,.91,3.6,1.61l-1.16,2.8c-1.03-.65-2.12-1.15-3.29-1.49-1.17-.34-2.31-.51-3.43-.51-1.98,0-3.47,.36-4.46,1.08-.99,.72-1.49,1.66-1.49,2.8,0,.84,.28,1.52,.84,2.05,.56,.52,1.25,.93,2.08,1.23,.83,.29,1.95,.6,3.38,.93,1.84,.44,3.33,.89,4.45,1.33,1.12,.44,2.08,1.12,2.89,2.03,.81,.91,1.21,2.13,1.21,3.67,0,1.28-.35,2.46-1.05,3.52-.7,1.06-1.76,1.9-3.19,2.52-1.42,.62-3.17,.93-5.25,.93-1.84,0-3.62-.29-5.34-.86Z"/><path class="cls-1" d="M299.91,284.86c-1.48-.82-2.64-1.94-3.48-3.38s-1.26-3.06-1.26-4.88,.42-3.45,1.26-4.88c.84-1.43,2-2.55,3.48-3.36,1.48-.8,3.17-1.21,5.06-1.21,1.68,0,3.18,.34,4.5,1.02,1.32,.68,2.34,1.66,3.06,2.94l-2.56,1.65c-.58-.89-1.31-1.55-2.17-2-.86-.44-1.82-.67-2.87-.67-1.21,0-2.3,.27-3.27,.81-.97,.54-1.73,1.3-2.27,2.29-.55,.99-.82,2.13-.82,3.41s.27,2.46,.82,3.45c.55,.99,1.31,1.76,2.27,2.29,.97,.54,2.06,.81,3.27,.81,1.05,0,2.01-.22,2.87-.67,.86-.44,1.59-1.11,2.17-2l2.56,1.61c-.72,1.28-1.74,2.27-3.06,2.96-1.32,.69-2.82,1.03-4.5,1.03-1.89,0-3.58-.41-5.06-1.23Z"/><path class="cls-1" d="M322.68,267.99c1.14-.56,2.53-.84,4.17-.84v3.25c-.19-.02-.44-.03-.77-.03-1.82,0-3.25,.54-4.29,1.63-1.04,1.08-1.56,2.63-1.56,4.64v9.24h-3.36v-18.55h3.22v3.11c.58-1.07,1.45-1.89,2.59-2.45Z"/><path class="cls-1" d="M347.49,277.72h-15.05c.21,1.63,.93,2.95,2.15,3.94s2.75,1.49,4.57,1.49c2.22,0,4-.75,5.35-2.24l1.85,2.17c-.84,.98-1.88,1.73-3.13,2.24-1.25,.51-2.64,.77-4.18,.77-1.96,0-3.7-.4-5.21-1.21-1.52-.81-2.69-1.93-3.52-3.38-.83-1.45-1.24-3.08-1.24-4.9s.4-3.42,1.21-4.87c.8-1.45,1.91-2.57,3.32-3.38,1.41-.8,3-1.21,4.78-1.21s3.35,.4,4.74,1.21c1.39,.81,2.47,1.93,3.25,3.38,.78,1.45,1.17,3.1,1.17,4.97,0,.26-.02,.59-.07,1.02Zm-13.14-6.27c-1.08,.98-1.72,2.26-1.91,3.85h11.9c-.19-1.56-.82-2.84-1.91-3.83-1.08-.99-2.43-1.49-4.04-1.49s-2.96,.49-4.04,1.47Z"/><path class="cls-1" d="M368.91,277.72h-15.05c.21,1.63,.93,2.95,2.15,3.94s2.75,1.49,4.57,1.49c2.22,0,4-.75,5.35-2.24l1.85,2.17c-.84,.98-1.88,1.73-3.13,2.24-1.25,.51-2.64,.77-4.18,.77-1.96,0-3.7-.4-5.21-1.21-1.52-.81-2.69-1.93-3.52-3.38-.83-1.45-1.24-3.08-1.24-4.9s.4-3.42,1.21-4.87c.8-1.45,1.91-2.57,3.32-3.38,1.41-.8,3-1.21,4.78-1.21s3.35,.4,4.74,1.21c1.39,.81,2.47,1.93,3.25,3.38,.78,1.45,1.17,3.1,1.17,4.97,0,.26-.02,.59-.07,1.02Zm-13.14-6.27c-1.08,.98-1.72,2.26-1.91,3.85h11.9c-.19-1.56-.82-2.84-1.91-3.83-1.08-.99-2.43-1.49-4.04-1.49s-2.96,.49-4.04,1.47Z"/><path class="cls-1" d="M389.16,269.2c1.39,1.37,2.08,3.37,2.08,6v10.67h-3.36v-10.29c0-1.8-.43-3.15-1.3-4.06-.86-.91-2.1-1.36-3.71-1.36-1.82,0-3.25,.53-4.3,1.59-1.05,1.06-1.58,2.58-1.58,4.57v9.56h-3.36v-18.55h3.22v2.8c.68-.96,1.59-1.69,2.75-2.21,1.16-.51,2.47-.77,3.94-.77,2.36,0,4.23,.68,5.62,2.05Z"/><path class="cls-1" d="M422.99,279.75h-13.02l-2.7,6.12h-3.6l11.1-24.5h3.46l11.13,24.5h-3.68l-2.7-6.12Zm-1.22-2.8l-5.29-12.01-5.28,12.01h10.57Z"/><path class="cls-1" d="M447.17,268.34c1.42,.79,2.54,1.9,3.34,3.33,.8,1.42,1.21,3.07,1.21,4.94s-.4,3.52-1.21,4.95c-.8,1.43-1.92,2.55-3.34,3.34-1.42,.79-3.03,1.19-4.83,1.19-1.33,0-2.55-.26-3.66-.77-1.11-.51-2.05-1.26-2.82-2.24v9.59h-3.36v-25.34h3.22v2.94c.75-1.03,1.69-1.8,2.83-2.33,1.14-.52,2.4-.79,3.78-.79,1.8,0,3.41,.4,4.83,1.19Zm-1.91,13.98c.95-.55,1.69-1.32,2.24-2.31,.55-.99,.82-2.13,.82-3.41s-.27-2.42-.82-3.41c-.55-.99-1.29-1.76-2.24-2.29-.95-.54-2.01-.81-3.2-.81s-2.22,.27-3.17,.82c-.94,.55-1.69,1.31-2.24,2.29-.55,.98-.82,2.11-.82,3.4s.27,2.42,.81,3.41c.54,.99,1.28,1.76,2.24,2.31,.96,.55,2.02,.82,3.19,.82s2.26-.27,3.2-.82Z"/><path class="cls-1" d="M471.04,268.34c1.42,.79,2.54,1.9,3.34,3.33,.8,1.42,1.21,3.07,1.21,4.94s-.4,3.52-1.21,4.95c-.8,1.43-1.92,2.55-3.34,3.34-1.42,.79-3.03,1.19-4.83,1.19-1.33,0-2.55-.26-3.66-.77-1.11-.51-2.05-1.26-2.82-2.24v9.59h-3.36v-25.34h3.22v2.94c.75-1.03,1.69-1.8,2.83-2.33,1.14-.52,2.4-.79,3.78-.79,1.8,0,3.41,.4,4.83,1.19Zm-1.91,13.98c.95-.55,1.69-1.32,2.24-2.31,.55-.99,.82-2.13,.82-3.41s-.27-2.42-.82-3.41c-.55-.99-1.29-1.76-2.24-2.29-.95-.54-2.01-.81-3.2-.81s-2.22,.27-3.17,.82c-.94,.55-1.69,1.31-2.24,2.29-.55,.98-.82,2.11-.82,3.4s.27,2.42,.81,3.41c.54,.99,1.28,1.76,2.24,2.31,.96,.55,2.02,.82,3.19,.82s2.26-.27,3.2-.82Z"/><path class="cls-1" d="M480.25,259.9h3.36v25.97h-3.36v-25.97Z"/><path class="cls-1" d="M490.06,263.12c-.43-.42-.65-.93-.65-1.54s.22-1.13,.65-1.56c.43-.43,.97-.65,1.63-.65s1.2,.2,1.63,.61,.65,.92,.65,1.52-.22,1.16-.65,1.59c-.43,.43-.97,.65-1.63,.65s-1.2-.21-1.63-.63Zm-.05,4.2h3.36v18.55h-3.36v-18.55Z"/><path class="cls-1" d="M502.8,284.86c-1.48-.82-2.64-1.94-3.48-3.38-.84-1.44-1.26-3.06-1.26-4.88s.42-3.45,1.26-4.88c.84-1.43,2-2.55,3.48-3.36,1.48-.8,3.17-1.21,5.06-1.21,1.68,0,3.18,.34,4.5,1.02s2.34,1.66,3.06,2.94l-2.55,1.65c-.58-.89-1.31-1.55-2.17-2-.86-.44-1.82-.67-2.87-.67-1.21,0-2.3,.27-3.27,.81-.97,.54-1.73,1.3-2.28,2.29-.55,.99-.82,2.13-.82,3.41s.27,2.46,.82,3.45c.55,.99,1.31,1.76,2.28,2.29,.97,.54,2.06,.81,3.27,.81,1.05,0,2.01-.22,2.87-.67,.86-.44,1.59-1.11,2.17-2l2.55,1.61c-.72,1.28-1.74,2.27-3.06,2.96-1.32,.69-2.82,1.03-4.5,1.03-1.89,0-3.58-.41-5.06-1.23Z"/><path class="cls-1" d="M532.41,269.04c1.36,1.26,2.05,3.14,2.05,5.63v11.2h-3.18v-2.45c-.56,.86-1.36,1.52-2.4,1.98-1.04,.46-2.27,.68-3.69,.68-2.08,0-3.74-.5-4.99-1.5-1.25-1-1.87-2.32-1.87-3.96s.59-2.95,1.79-3.94c1.19-.99,3.08-1.49,5.67-1.49h5.32v-.67c0-1.45-.42-2.56-1.26-3.33-.84-.77-2.08-1.15-3.71-1.15-1.1,0-2.17,.18-3.22,.54s-1.94,.85-2.66,1.45l-1.4-2.52c.96-.77,2.1-1.36,3.43-1.77s2.74-.61,4.24-.61c2.57,0,4.53,.63,5.9,1.89Zm-3.34,13.6c.93-.57,1.61-1.38,2.03-2.43v-2.59h-5.18c-2.85,0-4.27,.96-4.27,2.87,0,.93,.36,1.67,1.08,2.21,.72,.54,1.73,.81,3.01,.81s2.39-.29,3.33-.86Z"/><path class="cls-1" d="M551.12,284.79c-.49,.42-1.1,.74-1.82,.96-.72,.22-1.47,.33-2.24,.33-1.87,0-3.31-.5-4.34-1.5-1.03-1-1.54-2.44-1.54-4.31v-10.19h-3.15v-2.76h3.15v-4.06h3.36v4.06h5.32v2.76h-5.32v10.04c0,1,.25,1.77,.75,2.31,.5,.54,1.22,.81,2.15,.81,1.03,0,1.9-.29,2.62-.88l1.05,2.42Z"/><path class="cls-1" d="M555.23,263.12c-.43-.42-.65-.93-.65-1.54s.22-1.13,.65-1.56c.43-.43,.97-.65,1.63-.65s1.2,.2,1.63,.61,.65,.92,.65,1.52-.22,1.16-.65,1.59c-.43,.43-.97,.65-1.63,.65s-1.2-.21-1.63-.63Zm-.05,4.2h3.36v18.55h-3.36v-18.55Z"/><path class="cls-1" d="M567.92,284.86c-1.47-.82-2.62-1.94-3.45-3.38-.83-1.44-1.24-3.06-1.24-4.88s.41-3.45,1.24-4.88c.83-1.43,1.98-2.55,3.45-3.36,1.47-.8,3.13-1.21,4.97-1.21s3.49,.4,4.95,1.21c1.46,.81,2.6,1.93,3.43,3.36,.83,1.44,1.24,3.06,1.24,4.88s-.41,3.45-1.24,4.88c-.83,1.44-1.97,2.56-3.43,3.38-1.46,.82-3.11,1.23-4.95,1.23s-3.5-.41-4.97-1.23Zm8.17-2.54c.95-.55,1.69-1.32,2.22-2.31s.81-2.13,.81-3.41-.27-2.42-.81-3.41c-.54-.99-1.28-1.76-2.22-2.29-.94-.54-2.01-.81-3.2-.81s-2.26,.27-3.2,.81c-.95,.54-1.69,1.3-2.24,2.29-.55,.99-.82,2.13-.82,3.41s.27,2.42,.82,3.41c.55,.99,1.29,1.76,2.24,2.31,.94,.55,2.01,.82,3.2,.82s2.26-.27,3.2-.82Z"/><path class="cls-1" d="M602.69,269.2c1.39,1.37,2.08,3.37,2.08,6v10.67h-3.36v-10.29c0-1.8-.43-3.15-1.29-4.06-.86-.91-2.1-1.36-3.71-1.36-1.82,0-3.25,.53-4.3,1.59-1.05,1.06-1.58,2.58-1.58,4.57v9.56h-3.36v-18.55h3.22v2.8c.68-.96,1.59-1.69,2.75-2.21,1.16-.51,2.47-.77,3.94-.77,2.36,0,4.23,.68,5.62,2.05Z"/><path class="cls-1" d="M611.95,285.47c-1.4-.41-2.5-.93-3.29-1.56l1.4-2.66c.82,.58,1.81,1.05,2.97,1.4,1.17,.35,2.34,.53,3.54,.53,2.94,0,4.41-.84,4.41-2.52,0-.56-.2-1-.59-1.33-.4-.33-.89-.57-1.49-.72-.59-.15-1.44-.32-2.54-.51-1.49-.23-2.71-.5-3.66-.81-.95-.3-1.76-.82-2.43-1.54-.68-.72-1.02-1.74-1.02-3.04,0-1.68,.7-3.03,2.1-4.04,1.4-1.01,3.28-1.52,5.63-1.52,1.24,0,2.47,.15,3.71,.46,1.24,.3,2.25,.71,3.04,1.23l-1.43,2.66c-1.52-.98-3.3-1.47-5.36-1.47-1.42,0-2.51,.23-3.25,.7s-1.12,1.08-1.12,1.85c0,.61,.21,1.08,.63,1.43,.42,.35,.94,.61,1.56,.77,.62,.16,1.49,.35,2.61,.56,1.49,.26,2.7,.53,3.62,.82,.92,.29,1.71,.79,2.36,1.49,.65,.7,.98,1.68,.98,2.94,0,1.68-.72,3.02-2.15,4.01-1.43,.99-3.39,1.49-5.86,1.49-1.52,0-2.97-.2-4.38-.61Z"/></g></svg>