<?xml version="1.0" encoding="UTF-8"?><svg id="Laag_1" xmlns="http://www.w3.org/2000/svg" viewBox="0 0 193.64 349.65"><defs><style>.cls-1{fill:#fff;}</style></defs><path class="cls-1" d="M61.74,107.5c0-9.91,2.19-18.85,6.65-26.77,4.42-7.97,10.49-14.28,18.17-18.99,7.68-4.66,16.23-7,25.6-7,3.35,0,6.61,.29,9.76,.92L167.54,13.36C151.07,4.47,132.57,0,112.16,0s-40.12,4.76-57.08,14.28c-16.95,9.52-30.36,22.39-40.22,38.67C4.95,69.27,0,87.44,0,107.5c0,18.17,4.08,34.78,12.24,49.74l49.6-45.95c-.05-1.21-.1-2.53-.1-3.79Z"/><path class="cls-1" d="M179.89,189.88l-48.53,44.93c.39,2.53,.53,5.1,.53,7.77,0,9.62-2.23,18.41-6.66,26.38-4.42,7.92-10.44,14.23-17.97,18.94-7.58,4.71-16.18,7.04-25.79,7.04-4.61,0-8.99-.58-13.21-1.7l-44.84,41.53c.34,.19,.63,.39,.97,.58,16.95,9.52,35.95,14.28,57.08,14.28s40.12-4.76,57.03-14.28c16.95-9.47,30.36-22.3,40.27-38.47,9.91-16.13,14.86-34.25,14.86-54.31s-4.57-36.87-13.75-52.71Z"/></svg>